<svg width="34" height="34" viewBox="0 0 34 34" fill="none" xmlns="http://www.w3.org/2000/svg">
<rect width="34" height="34" rx="7" fill="black"/>
<rect x="2" y="2" width="30" height="30" rx="7" fill="#F8F8F8"/>
<path d="M15.1689 29V15.2451H12.6641V13.1504H15.1689V11.5244C15.1689 9.8252 15.623 8.51172 16.5312 7.58398C17.4395 6.65625 18.7236 6.19238 20.3838 6.19238C21.0088 6.19238 21.6289 6.27539 22.2441 6.44141L22.0977 8.63867C21.6387 8.55078 21.1504 8.50684 20.6328 8.50684C19.7539 8.50684 19.0752 8.76562 18.5967 9.2832C18.1182 9.79102 17.8789 10.5234 17.8789 11.4805V13.1504H21.2627V15.2451H17.8789V29H15.1689Z" fill="black"/>
</svg>
